<svg width="24" height="25" viewBox="0 0 24 25" fill="none" xmlns="http://www.w3.org/2000/svg">
<path fill-rule="evenodd" clip-rule="evenodd" d="M14.2929 4.79289C14 5.08579 14 5.55719 14 6.5C14 7.44281 14 7.91421 14.2929 8.20711C14.5858 8.5 15.0572 8.5 16 8.5H18C18.9428 8.5 19.4142 8.5 19.7071 8.20711C20 7.91421 20 7.44281 20 6.5C20 5.55719 20 5.08579 19.7071 4.79289C19.4142 4.5 18.9428 4.5 18 4.5H16C15.0572 4.5 14.5858 4.5 14.2929 4.79289ZM4.29289 16.7929C4 17.0858 4 17.5572 4 18.5C4 19.4428 4 19.9142 4.29289 20.2071C4.58579 20.5 5.05719 20.5 6 20.5H8C8.94281 20.5 9.41421 20.5 9.70711 20.2071C10 19.9142 10 19.4428 10 18.5C10 17.5572 10 17.0858 9.70711 16.7929C9.41421 16.5 8.94281 16.5 8 16.5H6C5.05719 16.5 4.58579 16.5 4.29289 16.7929ZM14 14.5C14 13.5572 14 13.0858 14.2929 12.7929C14.5858 12.5 15.0572 12.5 16 12.5H18C18.9428 12.5 19.4142 12.5 19.7071 12.7929C20 13.0858 20 13.5572 20 14.5V18.5C20 19.4428 20 19.9142 19.7071 20.2071C19.4142 20.5 18.9428 20.5 18 20.5H16C15.0572 20.5 14.5858 20.5 14.2929 20.2071C14 19.9142 14 19.4428 14 18.5V14.5ZM4.29289 4.79289C4 5.08579 4 5.55719 4 6.5V10.5C4 11.4428 4 11.9142 4.29289 12.2071C4.58579 12.5 5.05719 12.5 6 12.5H8C8.94281 12.5 9.41421 12.5 9.70711 12.2071C10 11.9142 10 11.4428 10 10.5V6.5C10 5.55719 10 5.08579 9.70711 4.79289C9.41421 4.5 8.94281 4.5 8 4.5H6C5.05719 4.5 4.58579 4.5 4.29289 4.79289Z" fill="white"/>
<path fill-rule="evenodd" clip-rule="evenodd" d="M4.82324 5.32324L4.82567 5.32187C4.8276 5.32086 4.83092 5.31924 4.83596 5.31717C4.85774 5.30821 4.90611 5.29291 5.00266 5.27993C5.21339 5.2516 5.50739 5.25001 6 5.25001H8C8.49261 5.25001 8.78661 5.2516 8.99734 5.27993C9.09389 5.29291 9.14225 5.30821 9.16403 5.31717C9.16908 5.31924 9.17239 5.32086 9.17433 5.32187L9.17676 5.32324L9.17814 5.32568C9.17915 5.32761 9.18077 5.33093 9.18284 5.33597C9.1918 5.35775 9.20709 5.40611 9.22008 5.50267C9.24841 5.71339 9.25 6.0074 9.25 6.50001V10.5C9.25 10.9926 9.24841 11.2866 9.22008 11.4973C9.20709 11.5939 9.1918 11.6423 9.18284 11.664C9.18077 11.6691 9.17915 11.6724 9.17814 11.6743L9.17676 11.6768L9.17433 11.6781C9.17239 11.6792 9.16908 11.6808 9.16403 11.6828C9.14225 11.6918 9.09389 11.7071 8.99734 11.7201C8.78661 11.7484 8.49261 11.75 8 11.75H6C5.50739 11.75 5.21339 11.7484 5.00266 11.7201C4.90611 11.7071 4.85774 11.6918 4.83596 11.6828C4.83092 11.6808 4.8276 11.6792 4.82567 11.6781L4.82324 11.6768L4.82186 11.6743C4.82085 11.6724 4.81923 11.6691 4.81716 11.664C4.8082 11.6423 4.79291 11.5939 4.77992 11.4973C4.75159 11.2866 4.75 10.9926 4.75 10.5V6.50001C4.75 6.0074 4.75159 5.71339 4.77992 5.50267C4.79291 5.40611 4.8082 5.35775 4.81716 5.33597C4.81923 5.33093 4.82085 5.32761 4.82186 5.32568L4.82324 5.32324ZM5.95525 3.75C5.97013 3.75001 5.98504 3.75001 6 3.75001H8C8.01496 3.75001 8.02987 3.75001 8.04475 3.75C8.47756 3.74995 8.8744 3.74991 9.19721 3.79331C9.55269 3.8411 9.92841 3.95355 10.2374 4.26257C10.5465 4.57159 10.6589 4.94732 10.7067 5.3028C10.7501 5.62561 10.7501 6.02245 10.75 6.45526C10.75 6.47014 10.75 6.48505 10.75 6.50001V10.5C10.75 10.515 10.75 10.5299 10.75 10.5448C10.7501 10.9776 10.7501 11.3744 10.7067 11.6972C10.6589 12.0527 10.5465 12.4284 10.2374 12.7374C9.92841 13.0465 9.55269 13.1589 9.19721 13.2067C8.87439 13.2501 8.47756 13.2501 8.04474 13.25C8.02987 13.25 8.01496 13.25 8 13.25H6C5.98504 13.25 5.97013 13.25 5.95526 13.25C5.52244 13.2501 5.1256 13.2501 4.80279 13.2067C4.44731 13.1589 4.07159 13.0465 3.76256 12.7374C3.45354 12.4284 3.34109 12.0527 3.2933 11.6972C3.2499 11.3744 3.24994 10.9776 3.25 10.5448C3.25 10.5299 3.25 10.515 3.25 10.5V6.50001C3.25 6.48505 3.25 6.47013 3.25 6.45526C3.24994 6.02244 3.2499 5.62561 3.2933 5.3028C3.34109 4.94732 3.45354 4.57159 3.76256 4.26257C4.07159 3.95355 4.44731 3.8411 4.80279 3.79331C5.1256 3.74991 5.52243 3.74995 5.95525 3.75ZM14.8257 5.32187L14.8232 5.32324L14.8219 5.32568C14.8209 5.32761 14.8192 5.33093 14.8172 5.33597C14.8082 5.35775 14.7929 5.40611 14.7799 5.50267C14.7516 5.71339 14.75 6.0074 14.75 6.50001C14.75 6.99261 14.7516 7.28662 14.7799 7.49734C14.7929 7.5939 14.8082 7.64226 14.8172 7.66404C14.818 7.66606 14.8194 7.6693 14.8194 7.6693C14.8204 7.67152 14.8219 7.67434 14.8219 7.67434L14.8232 7.67677L14.8257 7.67815C14.8276 7.67916 14.8309 7.68077 14.836 7.68285C14.8577 7.69181 14.9061 7.7071 15.0027 7.72008C15.2134 7.74841 15.5074 7.75001 16 7.75001H18C18.4926 7.75001 18.7866 7.74841 18.9973 7.72008C19.0939 7.7071 19.1423 7.69181 19.164 7.68285C19.1691 7.68077 19.1724 7.67916 19.1743 7.67815L19.1768 7.67677L19.1781 7.67434C19.1791 7.6724 19.1808 7.66909 19.1828 7.66404C19.1918 7.64226 19.2071 7.5939 19.2201 7.49734C19.2484 7.28662 19.25 6.99261 19.25 6.50001C19.25 6.0074 19.2484 5.71339 19.2201 5.50267C19.2071 5.40611 19.1918 5.35775 19.1828 5.33597C19.1808 5.33093 19.1791 5.32761 19.1781 5.32568L19.1768 5.32324L19.1743 5.32187C19.1724 5.32086 19.1691 5.31924 19.164 5.31717C19.1423 5.30821 19.0939 5.29291 18.9973 5.27993C18.7866 5.2516 18.4926 5.25001 18 5.25001H16C15.5074 5.25001 15.2134 5.2516 15.0027 5.27993C14.9061 5.29291 14.8577 5.30821 14.836 5.31717C14.8309 5.31924 14.8276 5.32086 14.8257 5.32187ZM15.9553 3.75H18.0447C18.4776 3.74995 18.8744 3.74991 19.1972 3.79331C19.5527 3.8411 19.9284 3.95355 20.2374 4.26257C20.5465 4.57159 20.6589 4.94732 20.7067 5.3028C20.7501 5.62561 20.7501 6.02244 20.75 6.45526V6.54475C20.7501 6.97757 20.7501 7.3744 20.7067 7.69721C20.6589 8.0527 20.5465 8.42842 20.2374 8.73744C19.9284 9.04647 19.5527 9.15891 19.1972 9.20671C18.8744 9.25011 18.4776 9.25006 18.0447 9.25001H15.9553C15.5224 9.25006 15.1256 9.25011 14.8028 9.20671C14.4473 9.15891 14.0716 9.04647 13.7626 8.73744C13.4535 8.42842 13.3411 8.0527 13.2933 7.69721C13.2499 7.3744 13.2499 6.97757 13.25 6.54475C13.25 6.52988 13.25 6.51496 13.25 6.50001C13.25 6.48505 13.25 6.47014 13.25 6.45526C13.2499 6.02245 13.2499 5.62561 13.2933 5.3028C13.3411 4.94732 13.4535 4.57159 13.7626 4.26257C14.0716 3.95355 14.4473 3.8411 14.8028 3.79331C15.1256 3.74991 15.5224 3.74995 15.9553 3.75ZM15.9553 11.75H18.0447C18.4776 11.75 18.8744 11.7499 19.1972 11.7933C19.5527 11.8411 19.9284 11.9535 20.2374 12.2626C20.5465 12.5716 20.6589 12.9473 20.7067 13.3028C20.7501 13.6256 20.7501 14.0224 20.75 14.4553V18.5448C20.7501 18.9776 20.7501 19.3744 20.7067 19.6972C20.6589 20.0527 20.5465 20.4284 20.2374 20.7374C19.9284 21.0465 19.5527 21.1589 19.1972 21.2067C18.8744 21.2501 18.4776 21.2501 18.0447 21.25H15.9553C15.5224 21.2501 15.1256 21.2501 14.8028 21.2067C14.4473 21.1589 14.0716 21.0465 13.7626 20.7374C13.4535 20.4284 13.3411 20.0527 13.2933 19.6972C13.2499 19.3744 13.2499 18.9776 13.25 18.5448V14.5C13.25 14.4851 13.25 14.4701 13.25 14.4553C13.2499 14.0224 13.2499 13.6256 13.2933 13.3028C13.3411 12.9473 13.4535 12.5716 13.7626 12.2626C14.0716 11.9535 14.4473 11.8411 14.8028 11.7933C15.1256 11.7499 15.5224 11.75 15.9553 11.75ZM14.8257 13.3219L14.8232 13.3232L14.8219 13.3257C14.8209 13.3276 14.8192 13.3309 14.8172 13.336C14.8082 13.3578 14.7929 13.4061 14.7799 13.5027C14.7516 13.7134 14.75 14.0074 14.75 14.5V18.5C14.75 18.9926 14.7516 19.2866 14.7799 19.4973C14.7929 19.5939 14.8082 19.6423 14.8172 19.664C14.8192 19.6691 14.8209 19.6724 14.8219 19.6743L14.8232 19.6768L14.8257 19.6781C14.8276 19.6792 14.8309 19.6808 14.836 19.6828C14.8577 19.6918 14.9061 19.7071 15.0027 19.7201C15.2134 19.7484 15.5074 19.75 16 19.75H18C18.4926 19.75 18.7866 19.7484 18.9973 19.7201C19.0939 19.7071 19.1423 19.6918 19.164 19.6828C19.1691 19.6808 19.1724 19.6792 19.1743 19.6781L19.1768 19.6768L19.1781 19.6743C19.1791 19.6724 19.1808 19.6691 19.1828 19.664C19.1918 19.6423 19.2071 19.5939 19.2201 19.4973C19.2484 19.2866 19.25 18.9926 19.25 18.5V14.5C19.25 14.0074 19.2484 13.7134 19.2201 13.5027C19.2071 13.4061 19.1918 13.3578 19.1828 13.336C19.1816 13.333 19.1805 13.3306 19.1797 13.3287L19.1781 13.3257L19.1768 13.3232L19.1743 13.3219C19.1724 13.3209 19.1691 13.3192 19.164 13.3172C19.1423 13.3082 19.0939 13.2929 18.9973 13.2799C18.7866 13.2516 18.4926 13.25 18 13.25H16C15.5074 13.25 15.2134 13.2516 15.0027 13.2799C14.9061 13.2929 14.8577 13.3082 14.836 13.3172C14.8309 13.3192 14.8276 13.3209 14.8257 13.3219ZM4.82567 17.3219L4.82324 17.3232L4.82186 17.3257C4.82085 17.3276 4.81923 17.3309 4.81716 17.336C4.8082 17.3578 4.7929 17.4061 4.77992 17.5027C4.75159 17.7134 4.75 18.0074 4.75 18.5C4.75 18.9926 4.75159 19.2866 4.77992 19.4973C4.7929 19.5939 4.8082 19.6423 4.81716 19.664C4.81923 19.6691 4.82085 19.6724 4.82186 19.6743L4.82324 19.6768L4.82567 19.6781C4.8276 19.6792 4.83092 19.6808 4.83596 19.6828C4.85774 19.6918 4.90611 19.7071 5.00266 19.7201C5.21339 19.7484 5.50739 19.75 6 19.75H8C8.49261 19.75 8.78661 19.7484 8.99734 19.7201C9.09389 19.7071 9.14225 19.6918 9.16403 19.6828C9.16658 19.6818 9.1704 19.6801 9.1704 19.6801L9.17433 19.6781L9.17676 19.6768L9.17814 19.6743L9.1796 19.6714C9.18049 19.6695 9.18158 19.6671 9.18284 19.664C9.1918 19.6423 9.20709 19.5939 9.22008 19.4973C9.24841 19.2866 9.25 18.9926 9.25 18.5C9.25 18.0074 9.24841 17.7134 9.22008 17.5027C9.20709 17.4061 9.1918 17.3578 9.18284 17.336C9.18077 17.3309 9.17915 17.3276 9.17814 17.3257L9.17676 17.3232L9.17433 17.3219C9.17239 17.3209 9.16908 17.3192 9.16403 17.3172C9.14225 17.3082 9.09389 17.2929 8.99734 17.2799C8.78661 17.2516 8.49261 17.25 8 17.25H6C5.50739 17.25 5.21339 17.2516 5.00266 17.2799C4.90611 17.2929 4.85774 17.3082 4.83596 17.3172C4.83092 17.3192 4.8276 17.3209 4.82567 17.3219ZM5.95526 15.75H8.04474C8.47756 15.75 8.87439 15.7499 9.19721 15.7933C9.55269 15.8411 9.92841 15.9535 10.2374 16.2626C10.5465 16.5716 10.6589 16.9473 10.7067 17.3028C10.7501 17.6256 10.7501 18.0224 10.75 18.4553V18.5448C10.7501 18.9776 10.7501 19.3744 10.7067 19.6972C10.6589 20.0527 10.5465 20.4284 10.2374 20.7374C9.92841 21.0465 9.55269 21.1589 9.19721 21.2067C8.87439 21.2501 8.47756 21.2501 8.04474 21.25H5.95525C5.52244 21.2501 5.1256 21.2501 4.80279 21.2067C4.44731 21.1589 4.07159 21.0465 3.76256 20.7374C3.45354 20.4284 3.34109 20.0527 3.2933 19.6972C3.2499 19.3744 3.24994 18.9776 3.25 18.5448V18.4553C3.24994 18.0224 3.2499 17.6256 3.2933 17.3028C3.34109 16.9473 3.45354 16.5716 3.76256 16.2626C4.07159 15.9535 4.44731 15.8411 4.80279 15.7933C5.1256 15.7499 5.52244 15.75 5.95526 15.75Z" fill="white"/>
</svg>
