<svg width="211" height="88" viewBox="0 0 211 88" fill="none" xmlns="http://www.w3.org/2000/svg">
<path d="M30.8657 43.6336C17.2853 44.5506 0 27.5411 0 27.5411V88H211V1.89372C189.461 18.1942 180.841 0.200321 153.823 1.89372C134.799 3.08602 129.839 35.0306 112.331 27.5411C92.4397 19.0323 81.6106 -3.77344 60.7194 1.89372C41.307 7.15976 50.942 42.2781 30.8657 43.6336Z" fill="url(#paint0_linear_1_145)"/>
<path d="M1 27.3886C1 27.3886 18.0805 44.3003 31.5 43.3886C51.3384 42.0408 41.8175 7.12436 61 1.88859C81.6437 -3.74601 92.3445 18.9287 112 27.3886C129.301 34.835 134.202 3.07404 153 1.88859C179.699 0.204916 188.216 18.0953 209.5 1.88859" stroke="#73CED0" stroke-width="2" stroke-linecap="round"/>
<defs>
<linearGradient id="paint0_linear_1_145" x1="106" y1="-42.5" x2="105.5" y2="88" gradientUnits="userSpaceOnUse">
<stop stop-color="#4BA2A4"/>
<stop offset="1" stop-color="#041616" stop-opacity="0"/>
</linearGradient>
</defs>
</svg>
