<svg width="218" height="106" viewBox="0 0 218 106" fill="none" xmlns="http://www.w3.org/2000/svg">
<path d="M26 15.7517C12.7317 19.0402 1 40.2517 1 40.2517V105.252H217V21.2517C217 21.2517 199.378 4.37172 185 2.25169C157.365 -1.82298 156.872 44.8987 129 46.7517C110.763 47.9642 101.442 25.3924 84.5 32.2517C68.6698 38.661 78.198 64.339 62 69.7517C37.9616 77.7843 50.6007 9.6545 26 15.7517Z" fill="url(#paint0_linear_1_136)"/>
<path d="M1 39.2517C1 39.2517 12.7317 18.0402 26 14.7517C50.6007 8.6545 37.9616 76.7843 62 68.7517C78.198 63.339 68.6698 37.661 84.5 31.2517C101.442 24.3924 110.763 46.9642 129 45.7517C156.872 43.8987 157.365 -2.82298 185 1.25169C199.378 3.37172 217 20.2517 217 20.2517" stroke="#FFAC8F" stroke-width="2"/>
<defs>
<linearGradient id="paint0_linear_1_136" x1="109" y1="-7" x2="109" y2="105.252" gradientUnits="userSpaceOnUse">
<stop stop-color="#FFAC8F" stop-opacity="0.67"/>
<stop offset="1" stop-color="#201612" stop-opacity="0"/>
</linearGradient>
</defs>
</svg>
