<svg width="54" height="66" viewBox="0 0 54 66" fill="none" xmlns="http://www.w3.org/2000/svg">
<rect width="54" height="66" rx="12" fill="#FFAC8F"/>
<g clip-path="url(#clip0_1_131)">
<path d="M27 44.6667C20.5565 44.6667 15.3333 39.4435 15.3333 33C15.3333 26.5565 20.5565 21.3333 27 21.3333C33.4435 21.3333 38.6667 26.5565 38.6667 33C38.6667 39.4435 33.4435 44.6667 27 44.6667ZM22.9167 35.3333V37.6667H25.8333V40H28.1667V37.6667H29.3333C30.1069 37.6667 30.8488 37.3594 31.3957 36.8124C31.9427 36.2654 32.25 35.5236 32.25 34.75C32.25 33.9765 31.9427 33.2346 31.3957 32.6876C30.8488 32.1406 30.1069 31.8333 29.3333 31.8333H24.6667C24.512 31.8333 24.3636 31.7719 24.2542 31.6625C24.1448 31.5531 24.0833 31.4047 24.0833 31.25C24.0833 31.0953 24.1448 30.9469 24.2542 30.8375C24.3636 30.7281 24.512 30.6667 24.6667 30.6667H31.0833V28.3333H28.1667V26H25.8333V28.3333H24.6667C23.8931 28.3333 23.1513 28.6406 22.6043 29.1876C22.0573 29.7346 21.75 30.4765 21.75 31.25C21.75 32.0236 22.0573 32.7654 22.6043 33.3124C23.1513 33.8594 23.8931 34.1667 24.6667 34.1667H29.3333C29.4881 34.1667 29.6364 34.2281 29.7458 34.3375C29.8552 34.4469 29.9167 34.5953 29.9167 34.75C29.9167 34.9047 29.8552 35.0531 29.7458 35.1625C29.6364 35.2719 29.4881 35.3333 29.3333 35.3333H22.9167Z" fill="white"/>
</g>
<defs>
<clipPath id="clip0_1_131">
<rect width="28" height="28" fill="white" transform="translate(13 19)"/>
</clipPath>
</defs>
</svg>
