<svg width="23" height="26" viewBox="0 0 23 26" fill="none" xmlns="http://www.w3.org/2000/svg">
<path fill-rule="evenodd" clip-rule="evenodd" d="M8.82414 22.7299C9.4235 23.3975 10.1929 23.7643 10.9913 23.7643H10.9925C11.7943 23.7643 12.5672 23.3975 13.1678 22.7287C13.4894 22.3735 14.0379 22.3446 14.3931 22.6651C14.7495 22.9856 14.7784 23.5352 14.4579 23.8904C13.523 24.9283 12.293 25.4999 10.9925 25.4999H10.9902C9.69309 25.4987 8.46545 24.9272 7.53402 23.8893C7.21351 23.5341 7.24244 22.9844 7.59881 22.6651C7.95519 22.3434 8.50363 22.3724 8.82414 22.7299ZM11.0489 0.623047C16.1921 0.623047 19.6471 4.6288 19.6471 8.36958C19.6471 10.2938 20.1365 11.1095 20.656 11.975C21.1698 12.8289 21.7518 13.7985 21.7518 15.6313C21.348 20.3139 16.4594 20.6958 11.0489 20.6958C5.63851 20.6958 0.748766 20.3139 0.349564 15.7054C0.346108 13.7985 0.928111 12.8289 1.44185 11.975L1.62321 11.6697C2.06976 10.9022 2.45081 10.0674 2.45081 8.36958C2.45081 4.6288 5.9058 0.623047 11.0489 0.623047ZM11.0489 2.35864C7.00501 2.35864 4.1864 5.52668 4.1864 8.36958C4.1864 10.7751 3.51877 11.8871 2.92867 12.8682C2.45543 13.6562 2.0817 14.2787 2.0817 15.6313C2.27493 17.8135 3.71548 18.9602 11.0489 18.9602C18.3419 18.9602 19.8276 17.7626 20.0197 15.5561C20.0162 14.2787 19.6425 13.6562 19.1692 12.8682C18.5791 11.8871 17.9115 10.7751 17.9115 8.36958C17.9115 5.52668 15.0929 2.35864 11.0489 2.35864Z" fill="white"/>
<circle cx="18.2835" cy="4.67293" r="3.76046" fill="#FF0000" stroke="#2A2828" stroke-width="1.73559"/>
</svg>
