<svg width="49" height="40" viewBox="0 0 49 40" fill="none" xmlns="http://www.w3.org/2000/svg">
<path d="M38.3524 14.825C38.3524 8.45683 32.0675 3.29443 24.3147 3.29443C16.5619 3.29443 10.277 8.45683 10.277 14.825C10.277 17.1097 11.0992 19.2346 12.493 21.0268H12.4769C17.2096 27.1133 24.3147 36.2389 24.3147 36.2389L36.1525 21.0268H36.1384C37.5302 19.2346 38.3524 17.1097 38.3524 14.825ZM24.3147 19.7667C20.9918 19.7667 18.2986 17.5544 18.2986 14.825C18.2986 12.0955 20.9918 9.88332 24.3147 9.88332C27.6376 9.88332 30.3308 12.0955 30.3308 14.825C30.3308 17.5544 27.6376 19.7667 24.3147 19.7667Z" fill="white"/>
</svg>
