<svg width="31" height="455" viewBox="0 0 31 455" fill="none" xmlns="http://www.w3.org/2000/svg">
<path fill-rule="evenodd" clip-rule="evenodd" d="M8.81583 341.572C10.4158 341.519 10.9258 341.507 15 341.507C19.075 341.507 19.5841 341.52 21.1833 341.572C22.7808 341.625 23.8717 341.809 24.8258 342.078C25.8266 342.352 26.7331 342.78 27.4825 343.334C28.2454 343.878 28.8359 344.536 29.2125 345.262C29.5833 345.954 29.8366 346.746 29.91 347.905C29.9834 349.066 30 349.436 30 352.393C30 355.35 29.9825 355.72 29.91 356.881C29.8375 358.04 29.5833 358.832 29.2125 359.524C28.8292 360.24 28.3158 360.847 27.4825 361.452C26.7333 362.006 25.8266 362.434 24.8258 362.708C23.8717 362.977 22.7808 363.161 21.1842 363.214C19.5841 363.267 19.0741 363.279 15 363.279C10.9258 363.279 10.4158 363.266 8.81583 363.214C7.21917 363.161 6.12833 362.977 5.17417 362.708C4.18833 362.429 3.35084 362.057 2.5175 361.452C1.75451 360.908 1.16411 360.25 0.7875 359.524C0.416673 358.832 0.163336 358.04 0.09 356.881C0.0166636 355.72 0 355.35 0 352.393C0 349.436 0.0174954 349.066 0.09 347.906C0.162505 346.746 0.416673 345.954 0.7875 345.262C1.16429 344.536 1.75465 343.878 2.5175 343.334C3.26671 342.78 4.17334 342.352 5.17417 342.078C6.12833 341.809 7.21917 341.625 8.81583 341.572ZM21.0616 343.532C19.48 343.48 19.005 343.468 15 343.468C10.995 343.468 10.52 343.48 8.93834 343.532C7.47584 343.58 6.68167 343.757 6.15333 343.907C5.45333 344.104 4.95333 344.34 4.42833 344.721C3.90417 345.102 3.57833 345.465 3.30667 345.973C3.10083 346.356 2.85667 346.932 2.79 347.994C2.71833 349.142 2.7025 349.486 2.7025 352.393C2.7025 355.3 2.71833 355.644 2.79 356.792C2.85667 357.854 3.10083 358.43 3.30667 358.813C3.54697 359.286 3.93026 359.714 4.42833 360.065C4.91228 360.427 5.50174 360.705 6.15333 360.879C6.68167 361.029 7.47584 361.206 8.93834 361.254C10.52 361.306 10.9942 361.318 15 361.318C19.0058 361.318 19.48 361.306 21.0616 361.254C22.5241 361.206 23.3183 361.029 23.8467 360.879C24.5467 360.682 25.0467 360.446 25.5717 360.065C26.0697 359.714 26.453 359.286 26.6933 358.813C26.8992 358.43 27.1433 357.854 27.21 356.792C27.2817 355.644 27.2975 355.3 27.2975 352.393C27.2975 349.486 27.2817 349.142 27.21 347.994C27.1433 346.932 26.8992 346.356 26.6933 345.973C26.4217 345.465 26.0967 345.102 25.5717 344.721C25.0467 344.34 24.5467 344.104 23.8467 343.907C23.3183 343.757 22.5241 343.58 21.0616 343.532ZM13.0848 355.749C13.692 355.931 14.3427 356.025 15 356.025C16.3275 356.025 17.6005 355.643 18.539 354.961C19.4778 354.28 20.0051 353.356 20.0051 352.393C20.0051 351.43 19.4778 350.506 18.539 349.825C17.6005 349.143 16.3275 348.761 15 348.761C14.3427 348.761 13.692 348.855 13.0848 349.037C12.4774 349.22 11.9257 349.487 11.461 349.825C10.9962 350.162 10.6275 350.562 10.376 351.003C10.1245 351.444 9.99505 351.916 9.99505 352.393C9.99505 352.87 10.1245 353.342 10.376 353.783C10.6275 354.224 10.9962 354.624 11.461 354.961C11.9257 355.299 12.4774 355.566 13.0848 355.749ZM9.54825 348.436C10.9942 347.387 12.9552 346.798 15 346.798C17.0449 346.798 19.006 347.387 20.4518 348.436C21.8977 349.486 22.71 350.909 22.71 352.393C22.71 353.877 21.8977 355.3 20.4518 356.35C19.006 357.399 17.0449 357.988 15 357.988C12.9552 357.988 10.9942 357.399 9.54825 356.35C8.10235 355.3 7.29004 353.877 7.29004 352.393C7.29004 350.909 8.10235 349.486 9.54825 348.436ZM24.4196 347.631C24.7613 347.383 24.9533 347.047 24.9533 346.696C24.9533 346.345 24.7613 346.009 24.4196 345.761C24.0777 345.513 23.6142 345.373 23.1308 345.373C22.6475 345.373 22.1839 345.513 21.8422 345.761C21.5003 346.009 21.3083 346.345 21.3083 346.696C21.3083 347.047 21.5003 347.383 21.8422 347.631C22.1839 347.879 22.6475 348.019 23.1308 348.019C23.6142 348.019 24.0777 347.879 24.4196 347.631Z" fill="white"/>
<path d="M30 439.4C28.8968 439.755 27.7116 439.995 26.4657 440.103C27.7367 439.551 28.7118 438.674 29.1716 437.631C27.9825 438.143 26.6652 438.515 25.2634 438.714C24.1403 437.848 22.5416 437.305 20.7712 437.305C17.3729 437.305 14.6168 439.305 14.6168 441.773C14.6168 442.122 14.6723 442.462 14.7754 442.79C9.65824 442.603 5.12508 440.824 2.08887 438.122C1.56038 438.783 1.25649 439.551 1.25649 440.368C1.25649 441.917 2.34387 443.285 3.9941 444.086C2.98467 444.062 2.03602 443.862 1.20629 443.527V443.585C1.20629 445.749 3.32687 447.554 6.14375 447.965C5.62583 448.066 5.0828 448.12 4.52259 448.12C4.12622 448.12 3.7391 448.093 3.36387 448.041C4.14736 449.815 6.41989 451.108 9.11389 451.142C7.00652 452.341 4.35215 453.055 1.46921 453.055C0.972428 453.055 0.482249 453.034 0 452.993C2.72439 454.262 5.95878 455 9.43363 455C20.7566 455 26.9466 448.194 26.9466 442.291C26.9466 442.099 26.94 441.906 26.9281 441.714C28.1305 441.083 29.1742 440.298 29.9974 439.403L30 439.4Z" fill="white"/>
<path d="M10.3289 242.83C10.3289 243.588 10.3657 247.297 10.3657 247.297H6.00002V252.05L10.3289 252.041L10.3657 267.099H19.097V252.05L24.689 252.041C24.689 252.041 25.1114 249.954 25.3727 247.297C24.6224 247.297 19.097 247.297 19.097 247.297C19.097 247.297 18.955 244.006 18.955 243.49C18.955 242.972 19.8919 242.275 20.8181 242.275H25.5C25.5 241.585 25.5 239.202 25.5 237C23.0881 237 20.3444 237 19.1342 237C10.1164 237 10.3289 242.072 10.3289 242.83Z" fill="white"/>
<path d="M15.2135 89.1753C14.8879 89.185 14.5787 89.3325 14.3516 89.5864C14.1245 89.8403 13.9975 90.1805 13.9976 90.5347V93.2534C13.9974 93.432 14.0297 93.6089 14.0924 93.774C14.1552 93.939 14.2472 94.089 14.3633 94.2154C14.4794 94.3418 14.6173 94.442 14.7691 94.5104C14.9208 94.5788 15.0835 94.614 15.2477 94.614C15.412 94.614 15.5747 94.5788 15.7264 94.5104C15.8782 94.442 16.016 94.3418 16.1321 94.2154C16.2482 94.089 16.3403 93.939 16.403 93.774C16.4658 93.6089 16.498 93.432 16.4979 93.2534V90.5347C16.498 90.353 16.4645 90.1731 16.3996 90.0057C16.3346 89.8383 16.2395 89.6868 16.1197 89.5601C16 89.4334 15.8581 89.334 15.7025 89.2679C15.5468 89.2018 15.3806 89.1703 15.2135 89.1753V89.1753ZM5.5053 93.5561C5.25969 93.5602 5.02064 93.6428 4.81799 93.7938C4.61534 93.9447 4.45809 94.1573 4.36588 94.4048C4.27366 94.6524 4.25057 94.924 4.29949 95.1857C4.34841 95.4475 4.46717 95.6878 4.64094 95.8765L6.40874 97.8041C6.58339 97.9958 6.80667 98.1266 7.05002 98.1796C7.29338 98.2326 7.54575 98.2055 7.77486 98.1018C8.00398 97.998 8.19943 97.8223 8.33622 97.5971C8.47302 97.3719 8.54494 97.1075 8.54279 96.8376C8.54145 96.479 8.4098 96.1354 8.17653 95.8818L6.40874 93.9543C6.29036 93.8255 6.14939 93.7239 5.9942 93.6555C5.839 93.5871 5.67275 93.5533 5.5053 93.5561V93.5561ZM24.9267 93.5561C24.6105 93.569 24.3105 93.7112 24.0867 93.9543L22.3189 95.8765C22.1958 96.001 22.097 96.1512 22.0285 96.318C21.9599 96.4849 21.923 96.6652 21.92 96.8479C21.9169 97.0307 21.9478 97.2122 22.0107 97.3817C22.0736 97.5512 22.1673 97.7052 22.2861 97.8344C22.405 97.9637 22.5466 98.0655 22.7025 98.1339C22.8584 98.2023 23.0253 98.2359 23.1934 98.2326C23.3615 98.2292 23.5272 98.1891 23.6807 98.1146C23.8342 98.04 23.9723 97.9326 24.0867 97.7988L25.8545 95.8765C25.9715 95.7508 26.0645 95.6011 26.1282 95.4362C26.1919 95.2713 26.225 95.0943 26.2257 94.9154C26.2251 94.7326 26.1907 94.5517 26.1246 94.3836C26.0585 94.2154 25.962 94.0635 25.8409 93.9367C25.7197 93.8099 25.5764 93.7108 25.4193 93.6455C25.2623 93.5801 25.0947 93.5497 24.9267 93.5561V93.5561ZM15.1403 97.3315C13.6661 97.3545 12.2308 97.8495 11.0138 98.7545C9.79675 99.6595 8.85202 100.934 8.29763 102.42C7.74323 103.905 7.60375 105.536 7.89663 107.107C8.1895 108.678 8.90174 110.121 9.94433 111.254C11.3578 112.747 13.2547 113.575 15.225 113.559C17.1954 113.544 19.0809 112.686 20.4742 111.171C21.8674 109.656 22.6565 107.605 22.6709 105.463C22.6853 103.321 21.9239 101.258 20.5511 99.721C19.842 98.9495 18.9978 98.3406 18.0684 97.9301C17.139 97.5197 16.1433 97.3161 15.1403 97.3315V97.3315ZM1.49601 104.128C1.33182 104.128 1.16923 104.163 1.01752 104.232C0.865816 104.3 0.72797 104.4 0.611856 104.526C0.495742 104.653 0.403634 104.802 0.340792 104.967C0.27795 105.132 0.245605 105.309 0.245605 105.488C0.245605 105.666 0.27795 105.843 0.340792 106.008C0.403634 106.173 0.495742 106.323 0.611856 106.449C0.72797 106.575 0.865816 106.675 1.01752 106.744C1.16923 106.812 1.33182 106.847 1.49601 106.847H3.99632C4.68891 106.847 5.24648 106.241 5.24648 105.488C5.24648 104.735 4.68891 104.128 3.99632 104.128H1.49601ZM26.4991 104.128C26.3349 104.128 26.1722 104.163 26.0204 104.231C25.8686 104.3 25.7307 104.4 25.6145 104.526C25.4983 104.652 25.4062 104.802 25.3433 104.967C25.2804 105.132 25.248 105.309 25.248 105.488C25.248 105.666 25.2804 105.843 25.3433 106.008C25.4062 106.173 25.4983 106.323 25.6145 106.449C25.7307 106.575 25.8686 106.676 26.0204 106.744C26.1722 106.812 26.3349 106.847 26.4991 106.847H28.9995C29.692 106.847 30.2496 106.241 30.2496 105.488C30.2496 104.735 29.692 104.128 28.9995 104.128H26.4991ZM7.25845 112.778C6.93879 112.788 6.63471 112.931 6.40874 113.177L4.64094 115.099C4.5247 115.225 4.43247 115.375 4.36952 115.54C4.30657 115.705 4.27413 115.882 4.27406 116.06C4.27399 116.239 4.30629 116.416 4.36912 116.581C4.43194 116.746 4.52405 116.896 4.64019 117.022C4.75633 117.148 4.89421 117.248 5.04597 117.317C5.19772 117.385 5.36037 117.42 5.52462 117.42C5.68886 117.42 5.85148 117.385 6.00318 117.316C6.15489 117.248 6.2927 117.147 6.40874 117.021L8.17653 115.099C8.29285 114.973 8.38509 114.823 8.44795 114.658C8.51081 114.493 8.54304 114.316 8.54279 114.138C8.54285 113.956 8.50942 113.776 8.44447 113.609C8.37951 113.441 8.28436 113.29 8.16463 113.163C8.04489 113.036 7.90301 112.937 7.74737 112.871C7.59173 112.805 7.42548 112.773 7.25845 112.778ZM23.1882 112.778C22.9422 112.781 22.7024 112.863 22.4991 113.014C22.2957 113.164 22.1377 113.377 22.0449 113.625C21.952 113.872 21.9285 114.144 21.9773 114.407C22.0261 114.669 22.1449 114.91 22.3189 115.099L24.0867 117.021C24.2026 117.147 24.3404 117.248 24.4921 117.316C24.6438 117.385 24.8064 117.42 24.9706 117.42C25.1349 117.42 25.2975 117.385 25.4492 117.316C25.6009 117.248 25.7386 117.147 25.8545 117.021C25.9715 116.895 26.0645 116.746 26.1282 116.581C26.1919 116.416 26.225 116.239 26.2257 116.06C26.2238 115.699 26.0903 115.353 25.8545 115.099L24.0867 113.177C23.9689 113.048 23.8288 112.947 23.6744 112.879C23.5201 112.81 23.3548 112.776 23.1882 112.778V112.778ZM15.2135 116.363C14.8879 116.372 14.5787 116.52 14.3516 116.774C14.1245 117.027 13.9975 117.368 13.9976 117.722V120.441C13.9976 120.619 14.0299 120.796 14.0927 120.961C14.1556 121.126 14.2476 121.276 14.3637 121.402C14.4798 121.528 14.6176 121.628 14.7693 121.697C14.921 121.765 15.0836 121.8 15.2477 121.8C15.4119 121.8 15.5745 121.765 15.7261 121.697C15.8778 121.628 16.0156 121.528 16.1317 121.402C16.2478 121.276 16.3399 121.126 16.4027 120.961C16.4656 120.796 16.4979 120.619 16.4979 120.441V117.722C16.4979 117.54 16.4645 117.36 16.3996 117.193C16.3346 117.026 16.2395 116.874 16.1197 116.747C16 116.621 15.8581 116.521 15.7025 116.455C15.5468 116.389 15.3806 116.358 15.2135 116.363V116.363Z" fill="white"/>
<path fill-rule="evenodd" clip-rule="evenodd" d="M19.2481 0C24.2194 0 28.2493 4.382 28.2493 9.78748C28.2493 12.0982 27.5129 14.2218 26.2814 15.8961L29.9567 19.8935C30.3473 20.3182 30.3473 21.0067 29.9567 21.4314C29.5962 21.8235 29.0288 21.8536 28.6365 21.5219L28.5423 21.4314L24.8661 17.4351C23.3263 18.7742 21.3732 19.575 19.2481 19.575C14.2769 19.575 10.2469 15.193 10.2469 9.78748C10.2469 4.382 14.2769 0 19.2481 0V0ZM19.2481 2.175C15.3816 2.175 12.2472 5.58322 12.2472 9.78748C12.2472 13.9917 15.3816 17.4 19.2481 17.4C23.1147 17.4 26.2491 13.9917 26.2491 9.78748C26.2491 5.58322 23.1147 2.175 19.2481 2.175Z" fill="white"/>
</svg>
