<svg width="891" height="686" viewBox="0 0 891 686" fill="none" xmlns="http://www.w3.org/2000/svg">
<g filter="url(#filter0_d_108_136)">
<path d="M497.776 610.083C498.37 604.969 502.009 592.541 511.119 602.814C520.228 613.087 523.867 615.219 523.867 615.219C523.867 615.219 528.745 614.669 531.764 622.236C534.784 629.803 548.152 633.564 548.152 633.564C548.152 633.564 557.571 632.486 560.307 639.755C563.042 647.024 572.745 646.244 577.907 648.124C583.068 650.005 591.585 651.082 597.649 653.926L609.494 659.452C609.494 659.452 621.34 659.934 623.146 664.29C624.953 668.647 659.095 667.547 659.095 667.547C659.095 667.547 683.07 673.486 686.709 678.072C690.347 682.658 733.471 673.486 733.471 673.486C733.471 673.486 742.89 659.452 718.58 662.158C694.27 664.864 695.509 670.78 683.973 666.744C672.438 662.708 661.805 657.847 661.805 657.847C661.805 657.847 658.476 654.591 646.321 656.494C634.166 658.397 628.256 644.616 628.256 644.616C628.256 644.616 625.495 638.402 616.695 641.108C607.894 643.814 583.301 620.333 583.301 620.333C583.301 620.333 586.036 614.669 576.333 608.73C566.629 602.791 547.79 587.427 544.151 575.297C540.513 563.167 539.584 568.808 533.209 562.869C526.835 556.93 523.816 544.524 523.506 543.447C523.196 542.369 504.667 523.497 498.009 523.497C491.351 523.497 488.28 524.85 479.789 518.636C471.299 512.422 459.427 502.447 447.298 501.369C435.169 500.291 437.569 491.647 437.569 488.689C437.569 485.731 413.285 477.888 406.91 473.05C402.398 469.938 397.07 467.895 391.426 467.111C391.426 467.111 381.104 466.996 380.794 470.619C379.581 487.061 360.458 487.611 371.09 471.972C381.723 456.334 376.562 460.736 384.742 460.736C392.923 460.736 395.065 457.939 404.485 463.878C413.904 469.817 429.388 473.05 436.975 472.5C444.563 471.949 446.395 474.655 453.672 482.222C460.95 489.789 467.634 486.808 467.634 486.808L483.428 496.783C483.428 496.783 511.093 495.017 548.1 521.342L561.519 506.162C561.519 506.162 558.113 489.766 555.377 486.946C552.642 484.126 537.158 471.972 536.487 471.56C534.668 469.213 532.997 466.778 531.48 464.268L517.57 452.137C514.483 449.935 510.611 448.789 506.654 448.904C500.512 449.294 493.905 444.639 493.905 444.639C493.905 444.639 489.802 443.24 496.176 442.828C502.551 442.415 510.293 440.535 517.132 441.819C523.97 443.103 523.945 445.258 527.609 444.846C531.274 444.433 539.893 437.577 545.674 437.76C553.01 438.41 560.076 440.56 566.32 444.043C569.958 446.68 577.468 444.249 580.875 443.034C584.281 441.819 584.746 435.742 575.197 434.733C565.649 433.724 562.449 434.733 562.449 434.733C562.449 434.733 552.874 431.294 565.623 425.217" stroke="white" stroke-width="1.5" stroke-miterlimit="10"/>
<path d="M547.281 520.711L559.739 528.404C569.793 533.326 578.805 539.766 586.372 547.437C595.642 555.26 599.275 555.118 599.275 555.118L632.282 564.841C632.282 564.841 646.631 563.419 654.14 554.316C661.65 545.212 654.14 540.145 654.14 540.145L664.463 522.557L665.599 495.43C665.599 495.43 686.244 478.439 691.406 470.344C696.567 462.25 649.031 415.93 649.031 415.93L661.676 376.329L663.276 353.055C663.276 353.055 667.844 352.252 649.856 350.762C631.869 349.271 626.398 346.726 615.92 347.941C605.443 349.156 604.772 345.923 599.972 349.753C595.172 353.582 589.494 355.21 586.32 347.62C583.146 340.03 571.739 327.304 563.558 328.106C555.377 328.909 541.674 342.484 541.674 342.484L511.403 344.502C511.403 344.502 487.712 353.399 486.344 353.192C484.976 352.986 453.105 356.036 453.105 356.036C453.105 356.036 454.937 366.148 449.466 367.501C443.995 368.854 437.156 375.779 437.156 375.779C437.156 375.779 419.091 376.398 410.523 386.097C401.955 395.797 382.136 386.304 382.136 386.304C382.136 386.304 378.033 385.708 382.136 378.416C386.239 371.124 381.697 365.277 378.729 362.02C375.762 358.764 378.729 354.339 372.587 350.097C366.445 345.854 345.49 329.872 345.49 329.872C345.49 329.872 342.755 327.235 332.587 331.271C322.419 335.306 319.838 330.468 319.838 330.468C319.838 330.468 315.967 325.607 304.793 325.011C301.486 324.97 298.318 323.82 295.925 321.792C293.532 319.763 292.091 317.006 291.889 314.073C291.889 312.261 277.102 304.373 278.47 301.943C279.837 299.512 267.76 289.606 267.76 289.606C260.873 285.122 252.627 282.582 244.095 282.314C238.259 282.018 232.408 282.018 226.572 282.314C225.875 282.108 221.565 279.471 208.507 277.866C195.449 276.26 180.791 268.556 180.791 238.081C178.251 234.694 174.812 231.914 170.777 229.987C165.074 227.694 156.893 224.323 156.893 224.323C156.893 224.323 158.468 222.282 152.558 219.049C151.485 218.512 150.55 217.783 149.812 216.907C149.074 216.032 148.549 215.03 148.269 213.965C147.99 212.9 147.964 211.795 148.191 210.72C148.418 209.645 148.895 208.624 149.59 207.721C151.655 205.428 158.7 200.246 150.287 189.514C141.874 178.783 149.822 166.446 149.822 166.446C149.822 166.446 146.648 160.576 151.887 150.876C157.126 141.177 165.306 136.499 155.758 127.946C146.209 119.393 141.409 123.085 137.977 104.878C134.545 86.671 129.099 78.3701 129.099 78.3701C129.099 78.3701 111.576 62.1812 107.705 60.6219C103.834 59.0626 106.57 55.5772 105.873 54.1555C105.176 52.7338 96.0923 47.07 96.0923 47.07C92.2942 39.2869 87.5613 31.891 81.9759 25.0108C79.9888 22.7178 75.6016 11.4589 75.6016 11.4589C71.5776 8.12296 66.2918 6.24923 60.7885 6.20781C50.4657 5.58868 47.3689 6.20781 44.1689 10.0601C40.9688 13.9125 36.1945 12.078 35.2913 12.3532C34.388 12.6284 11.3425 13.087 11.3425 13.087" stroke="white" stroke-width="1.5" stroke-miterlimit="10"/>
<path d="M657.392 423.405L655.56 416.824C655.56 416.824 656.024 409.143 663.431 413.087C670.837 417.031 686.193 426.639 686.193 426.639C686.193 426.639 693.264 426.937 708.515 421.686C723.767 416.434 724.232 412.995 736.903 413.087C749.574 413.178 758.065 410.358 756.594 402.47C755.123 394.582 754.581 383.208 754.581 383.208C757.282 378.133 761.827 374.014 767.484 371.514C777.162 367.249 777.162 356.036 775.588 352.894C774.013 349.753 769.884 336.705 769.884 336.705C769.884 336.705 767.717 327.395 783.33 320.929C798.943 314.463 810.195 317.994 810.195 317.994L860.389 280.869C860.389 280.869 874.17 272.66 873.034 251.725C871.899 230.789 833.86 211.963 833.86 211.963L831.485 197.311C828.837 194.902 825.802 192.854 822.479 191.234C817.601 188.941 812.156 174.036 812.156 174.036C812.156 174.036 810.788 172.018 815.795 166.033C818.813 162.632 820.63 158.513 821.016 154.195C821.401 149.877 820.339 145.555 817.963 141.773C813.85 136.215 808.821 131.238 803.046 127.006C802.711 126.387 803.743 112.33 803.407 112.33C799.067 109.709 795.006 106.738 791.278 103.456C788.31 100.521 779.201 89.6977 779.201 89.6977C779.201 89.6977 774.659 82.7039 766.013 92.4265C757.368 102.149 723.2 124.69 712.025 129.757C700.851 134.825 702.967 147.941 702.967 147.941C702.967 147.941 697.16 156.242 681.083 160.484C665.005 164.726 674.941 183.14 674.941 183.14C674.941 183.14 684.851 191.234 680.309 196.393C675.767 201.553 673.702 202.264 674.141 214.738C674.579 227.212 657.65 223.749 657.65 223.749L637.159 241.131C635.663 241.27 634.154 241.019 632.815 240.408C631.477 239.797 630.368 238.853 629.624 237.691C627.063 233.929 624.969 229.931 623.379 225.767C623.379 225.767 623.25 212.926 623.379 212.605C623.508 212.284 607.894 201.278 607.894 201.278L594.578 202.608C592.038 201.016 589.931 198.94 588.41 196.531C587.043 193.481 561.442 184.08 561.442 184.08C558.467 181.912 556.029 179.219 554.284 176.173C552.538 173.126 551.522 169.791 551.3 166.377C551.088 165.781 550.829 165.199 550.526 164.635C549.003 161.745 545.055 156.494 537.287 158.902C531.707 160.47 526.556 163.055 522.164 166.492C521.803 166.492 486.396 169.611 486.396 169.611" stroke="white" stroke-width="1.5" stroke-miterlimit="10"/>
<path d="M861.421 281.511C861.421 281.511 874.041 282.543 880.26 306.964" stroke="white" stroke-width="1.5" stroke-miterlimit="10"/>
<path d="M550.5 164.726L551.971 158.971V143.997" stroke="white" stroke-width="1.5" stroke-miterlimit="10"/>
<path d="M744.465 109.693C744.465 109.693 746.271 92.1973 748.026 89.4915C749.781 86.7857 749.316 81.3053 749.265 80.6174C749.213 79.9295 748.826 76.5816 748.826 76.5816C748.826 76.5816 747.51 73.5777 746.245 73.8071C742.245 74.5867 740.31 78.8976 739.923 74.1969C739.535 69.4961 739.535 67.4324 739.535 67.4324" stroke="white" stroke-width="1.5" stroke-miterlimit="10"/>
<g filter="url(#filter1_d_108_136)">
<ellipse cx="9.75685" cy="13.0508" rx="4.75685" ry="4.2305" fill="white"/>
</g>
<g filter="url(#filter2_d_108_136)">
<ellipse cx="482.271" cy="169.579" rx="4.75685" ry="4.2305" fill="white"/>
</g>
<g filter="url(#filter3_d_108_136)">
<ellipse cx="552.038" cy="142.786" rx="4.75685" ry="4.2305" fill="white"/>
</g>
<g filter="url(#filter4_d_108_136)">
<ellipse cx="739.14" cy="66.6372" rx="4.75685" ry="4.2305" fill="white"/>
</g>
<g filter="url(#filter5_d_108_136)">
<ellipse cx="880.26" cy="309.186" rx="4.75685" ry="4.2305" fill="white"/>
</g>
<g filter="url(#filter6_d_108_136)">
<ellipse cx="496.541" cy="612.372" rx="4.75685" ry="4.2305" fill="white"/>
</g>
</g>
<defs>
<filter id="filter0_d_108_136" x="0" y="0.25" width="890.017" height="684.856" filterUnits="userSpaceOnUse" color-interpolation-filters="sRGB">
<feFlood flood-opacity="0" result="BackgroundImageFix"/>
<feColorMatrix in="SourceAlpha" type="matrix" values="0 0 0 0 0 0 0 0 0 0 0 0 0 0 0 0 0 0 127 0" result="hardAlpha"/>
<feOffset/>
<feGaussianBlur stdDeviation="2.5"/>
<feComposite in2="hardAlpha" operator="out"/>
<feColorMatrix type="matrix" values="0 0 0 0 0 0 0 0 0 0 0 0 0 0 0 0 0 0 0.8 0"/>
<feBlend mode="normal" in2="BackgroundImageFix" result="effect1_dropShadow_108_136"/>
<feBlend mode="normal" in="SourceGraphic" in2="effect1_dropShadow_108_136" result="shape"/>
</filter>
<filter id="filter1_d_108_136" x="0" y="3.82031" width="19.5137" height="18.4609" filterUnits="userSpaceOnUse" color-interpolation-filters="sRGB">
<feFlood flood-opacity="0" result="BackgroundImageFix"/>
<feColorMatrix in="SourceAlpha" type="matrix" values="0 0 0 0 0 0 0 0 0 0 0 0 0 0 0 0 0 0 127 0" result="hardAlpha"/>
<feOffset/>
<feGaussianBlur stdDeviation="2.5"/>
<feComposite in2="hardAlpha" operator="out"/>
<feColorMatrix type="matrix" values="0 0 0 0 0 0 0 0 0 0 0 0 0 0 0 0 0 0 0.2 0"/>
<feBlend mode="normal" in2="BackgroundImageFix" result="effect1_dropShadow_108_136"/>
<feBlend mode="normal" in="SourceGraphic" in2="effect1_dropShadow_108_136" result="shape"/>
</filter>
<filter id="filter2_d_108_136" x="472.514" y="160.349" width="19.5137" height="18.4609" filterUnits="userSpaceOnUse" color-interpolation-filters="sRGB">
<feFlood flood-opacity="0" result="BackgroundImageFix"/>
<feColorMatrix in="SourceAlpha" type="matrix" values="0 0 0 0 0 0 0 0 0 0 0 0 0 0 0 0 0 0 127 0" result="hardAlpha"/>
<feOffset/>
<feGaussianBlur stdDeviation="2.5"/>
<feComposite in2="hardAlpha" operator="out"/>
<feColorMatrix type="matrix" values="0 0 0 0 0 0 0 0 0 0 0 0 0 0 0 0 0 0 0.2 0"/>
<feBlend mode="normal" in2="BackgroundImageFix" result="effect1_dropShadow_108_136"/>
<feBlend mode="normal" in="SourceGraphic" in2="effect1_dropShadow_108_136" result="shape"/>
</filter>
<filter id="filter3_d_108_136" x="542.281" y="133.556" width="19.5137" height="18.4609" filterUnits="userSpaceOnUse" color-interpolation-filters="sRGB">
<feFlood flood-opacity="0" result="BackgroundImageFix"/>
<feColorMatrix in="SourceAlpha" type="matrix" values="0 0 0 0 0 0 0 0 0 0 0 0 0 0 0 0 0 0 127 0" result="hardAlpha"/>
<feOffset/>
<feGaussianBlur stdDeviation="2.5"/>
<feComposite in2="hardAlpha" operator="out"/>
<feColorMatrix type="matrix" values="0 0 0 0 0 0 0 0 0 0 0 0 0 0 0 0 0 0 0.2 0"/>
<feBlend mode="normal" in2="BackgroundImageFix" result="effect1_dropShadow_108_136"/>
<feBlend mode="normal" in="SourceGraphic" in2="effect1_dropShadow_108_136" result="shape"/>
</filter>
<filter id="filter4_d_108_136" x="729.384" y="57.4067" width="19.5137" height="18.4609" filterUnits="userSpaceOnUse" color-interpolation-filters="sRGB">
<feFlood flood-opacity="0" result="BackgroundImageFix"/>
<feColorMatrix in="SourceAlpha" type="matrix" values="0 0 0 0 0 0 0 0 0 0 0 0 0 0 0 0 0 0 127 0" result="hardAlpha"/>
<feOffset/>
<feGaussianBlur stdDeviation="2.5"/>
<feComposite in2="hardAlpha" operator="out"/>
<feColorMatrix type="matrix" values="0 0 0 0 0 0 0 0 0 0 0 0 0 0 0 0 0 0 0.2 0"/>
<feBlend mode="normal" in2="BackgroundImageFix" result="effect1_dropShadow_108_136"/>
<feBlend mode="normal" in="SourceGraphic" in2="effect1_dropShadow_108_136" result="shape"/>
</filter>
<filter id="filter5_d_108_136" x="870.504" y="299.955" width="19.5137" height="18.4609" filterUnits="userSpaceOnUse" color-interpolation-filters="sRGB">
<feFlood flood-opacity="0" result="BackgroundImageFix"/>
<feColorMatrix in="SourceAlpha" type="matrix" values="0 0 0 0 0 0 0 0 0 0 0 0 0 0 0 0 0 0 127 0" result="hardAlpha"/>
<feOffset/>
<feGaussianBlur stdDeviation="2.5"/>
<feComposite in2="hardAlpha" operator="out"/>
<feColorMatrix type="matrix" values="0 0 0 0 0 0 0 0 0 0 0 0 0 0 0 0 0 0 0.2 0"/>
<feBlend mode="normal" in2="BackgroundImageFix" result="effect1_dropShadow_108_136"/>
<feBlend mode="normal" in="SourceGraphic" in2="effect1_dropShadow_108_136" result="shape"/>
</filter>
<filter id="filter6_d_108_136" x="486.784" y="603.141" width="19.5137" height="18.4609" filterUnits="userSpaceOnUse" color-interpolation-filters="sRGB">
<feFlood flood-opacity="0" result="BackgroundImageFix"/>
<feColorMatrix in="SourceAlpha" type="matrix" values="0 0 0 0 0 0 0 0 0 0 0 0 0 0 0 0 0 0 127 0" result="hardAlpha"/>
<feOffset/>
<feGaussianBlur stdDeviation="2.5"/>
<feComposite in2="hardAlpha" operator="out"/>
<feColorMatrix type="matrix" values="0 0 0 0 0 0 0 0 0 0 0 0 0 0 0 0 0 0 0.2 0"/>
<feBlend mode="normal" in2="BackgroundImageFix" result="effect1_dropShadow_108_136"/>
<feBlend mode="normal" in="SourceGraphic" in2="effect1_dropShadow_108_136" result="shape"/>
</filter>
</defs>
</svg>
