<svg width="62" height="9" viewBox="0 0 62 9" fill="none" xmlns="http://www.w3.org/2000/svg">
<path d="M1.73436 1.30905C1.27438 1.30905 0.83324 1.28567 0.507983 1.24405C0.182727 1.20243 0 1.14598 0 1.08712C0 1.02826 0.182727 0.971811 0.507983 0.930192C0.83324 0.888572 1.27438 0.86519 1.73436 0.86519L60.2656 0.864746C60.7256 0.864746 61.1668 0.888128 61.492 0.929748C61.8173 0.971367 62 1.02782 62 1.08668C62 1.14553 61.8173 1.20198 61.492 1.2436C61.1668 1.28522 60.7256 1.3086 60.2656 1.3086L1.73436 1.30905ZM1.73436 5.05433C1.27438 5.05433 0.83324 5.03094 0.507983 4.98932C0.182727 4.9477 0 4.89126 0 4.8324C0 4.77354 0.182727 4.71709 0.507983 4.67547C0.83324 4.63385 1.27438 4.61047 1.73436 4.61047L60.2656 4.60958C60.7256 4.60958 61.1668 4.63296 61.492 4.67458C61.8173 4.7162 62 4.77265 62 4.83151C62 4.89037 61.8173 4.94682 61.492 4.98844C61.1668 5.03006 60.7256 5.05344 60.2656 5.05344L1.73436 5.05433ZM1.73436 8.7996C1.27438 8.7996 0.83324 8.77622 0.507983 8.7346C0.182727 8.69298 0 8.63653 0 8.57767C0 8.51881 0.182727 8.46237 0.507983 8.42075C0.83324 8.37913 1.27438 8.35574 1.73436 8.35574L60.2656 8.35486C60.7256 8.35486 61.1668 8.37824 61.492 8.41986C61.8173 8.46148 62 8.51793 62 8.57679C62 8.63565 61.8173 8.6921 61.492 8.73371C61.1668 8.77533 60.7256 8.79872 60.2656 8.79872L1.73436 8.7996Z" fill="#F8F8F8"/>
</svg>
